<svg width="200" height="80" viewBox="0 0 200 80" fill="none" xmlns="http://www.w3.org/2000/svg">
<path d="M175.362 21.5418C175.362 9.72856 186.434 0.0867879 200 0.0867879L99.9501 0L0.0033029 0.0868674C0.00333089 0.0868675 0.00335887 0.0868675 0.00338686 0.0868676C0.00343378 0.0868677 0.0034807 0.0868678 0.00352763 0.0868679L0.00725491 0.0868685C0.0120341 0.0868799 0.0539529 0.0869799 0.129419 0.08716C0.0874327 0.0869701 0.0454217 0.0868726 0.00338686 0.0868676C0.00225792 0.0868675 0.00112897 0.0868674 0 0.0868674L0.00352763 0.0868679C0.0034807 0.0868678 0.00343378 0.0868677 0.00338686 0.0868676C0.0454217 0.0868726 0.0874327 0.0869701 0.129419 0.08716C13.6364 0.148246 24.6384 9.76615 24.6384 21.5418V58.5451C24.6384 70.3583 35.7107 80 49.2767 80H150.723C164.289 80 175.362 70.3583 175.362 58.5451V21.5418Z" fill="white"/>
<path fill-rule="evenodd" clip-rule="evenodd" d="M95.2232 44.2097C97.5852 46.5968 101.415 46.5968 103.777 44.2097L135.228 12.4318C137.591 10.0458 137.591 6.17574 135.228 3.78974C132.866 1.40274 129.037 1.40274 126.675 3.78974L99.5002 31.2457L72.3253 3.78974C69.9633 1.40274 66.1342 1.40274 63.7722 3.78974C61.4093 6.17574 61.4093 10.0458 63.7722 12.4318L95.2232 44.2097Z" fill="#BB4DB4"/>
</svg>
