<svg width="200" height="80" viewBox="0 0 200 80" fill="none" xmlns="http://www.w3.org/2000/svg">
<path d="M175.362 21.5418C175.362 9.72856 186.434 0.0867879 200 0.0867879L99.9501 0L0.0033029 0.0868674C0.00333089 0.0868675 0.00335887 0.0868675 0.00338686 0.0868676C0.00343378 0.0868677 0.0034807 0.0868678 0.00352763 0.0868679L0.00725491 0.0868685C0.0120341 0.0868799 0.0539529 0.0869799 0.129419 0.08716C0.0874327 0.0869701 0.0454217 0.0868726 0.00338686 0.0868676C0.00225792 0.0868675 0.00112897 0.0868674 0 0.0868674L0.00352763 0.0868679C0.0034807 0.0868678 0.00343378 0.0868677 0.00338686 0.0868676C0.0454217 0.0868726 0.0874327 0.0869701 0.129419 0.08716C13.6364 0.148246 24.6384 9.76615 24.6384 21.5418V58.5451C24.6384 70.3583 35.7107 80 49.2767 80H150.723C164.289 80 175.362 70.3583 175.362 58.5451V21.5418Z" fill="white"/>
<path fill-rule="evenodd" clip-rule="evenodd" d="M95.2232 3.79025C97.5852 1.40325 101.415 1.40325 103.777 3.79025L135.228 35.5682C137.591 37.9542 137.591 41.8243 135.228 44.2103C132.866 46.5973 129.037 46.5973 126.675 44.2103L99.5002 16.7543L72.3253 44.2103C69.9633 46.5973 66.1342 46.5973 63.7722 44.2103C61.4093 41.8243 61.4093 37.9542 63.7722 35.5682L95.2232 3.79025Z" fill="#BB4DB4"/>
</svg>
